<?xml version="1.0" encoding="UTF-8"?>
<svg id="Layer_1" xmlns="http://www.w3.org/2000/svg" version="1.1" viewBox="0 0 80 80">
  <!-- Generator: Adobe Illustrator 29.4.0, SVG Export Plug-In . SVG Version: 2.1.0 Build 152)  -->
  <defs>
    <style>
      .st0 {
        fill: #F5F5F5;
      }

      .st1 {
        fill: #E63946;
      }
    </style>
  </defs>
  <path class="st1" d="M14.6,1.4h50.7c7.6.6,13.8,6.4,14.7,14v49c-1,7.9-6.8,13.7-14.9,14.3H15.1c-7.4-.5-12.7-5.3-14.6-12.3C-.5,49.7.3,32.9.1,16.2.8,8.4,6.7,2.1,14.6,1.4ZM17,15.4c-2,.3-2.4,1.5-2.6,3.3.5,9.7-.6,19.9,0,29.6s.2,2.7.9,3.3,4.6.5,5.8.4c3.3-.4,5-1.7,5.2-5.1.5-5.9-.4-12.4,0-18.4.1-.5.7-.9,1.2-1.1,6.2.7,16.7-1.6,22.1,1.5,6,3.4,6.4,12.9,3.1,18.3-3.9,6.2-11.4,4.5-17.5,4.7-8.2.3-13.6,2.4-19,8.7s-2.4,3.1.4,3.7c9.4-.5,19.4.6,28.7,0s18.5-8.1,20.8-17.8c3.8-15.9-4.6-30.1-21.4-31-9-.5-18.6.3-27.7,0Z"/>
  <path class="st0" d="M17,15.4c9.1.3,18.6-.6,27.7,0,16.9.9,25.3,15,21.4,31s-10.7,17.2-20.8,17.8-19.3-.5-28.7,0c-2.8-.5-1.7-2.2-.4-3.7,5.4-6.4,10.8-8.4,19-8.7,6.2-.2,13.7,1.5,17.5-4.7,3.3-5.4,2.9-14.8-3.1-18.3-5.4-3.1-15.9-.8-22.1-1.5-.5.2-1,.5-1.2,1.1-.4,6,.5,12.5,0,18.4s-1.9,4.7-5.2,5.1-4.9.3-5.8-.4-.9-2.4-.9-3.3c-.6-9.6.5-19.9,0-29.6.1-1.8.6-3,2.6-3.3Z"/>
</svg>